<svg width="57" height="57" viewBox="0 0 57 57" fill="none" xmlns="http://www.w3.org/2000/svg">
<circle cx="28.5" cy="28.5" r="28.5" fill="#FFAA00"/>
<path d="M25.8062 27.8368C25.6875 27.825 25.545 27.825 25.4144 27.8368C22.5881 27.7418 20.3438 25.4262 20.3438 22.5762C20.3438 19.6668 22.695 17.3037 25.6163 17.3037C28.5256 17.3037 30.8887 19.6668 30.8887 22.5762C30.8769 25.4262 28.6325 27.7418 25.8062 27.8368Z" stroke="white" stroke-width="2.625" stroke-linecap="round" stroke-linejoin="round"/>
<path d="M34.42 19.6787C36.7237 19.6787 38.5762 21.5431 38.5762 23.835C38.5762 26.0793 36.795 27.9081 34.5744 27.9912C34.4794 27.9793 34.3725 27.9793 34.2656 27.9912" stroke="white" stroke-width="2.625" stroke-linecap="round" stroke-linejoin="round"/>
<path d="M19.8662 32.2187C16.9925 34.1425 16.9925 37.2775 19.8662 39.1893C23.1319 41.3743 28.4875 41.3743 31.7531 39.1893C34.6269 37.2656 34.6269 34.1306 31.7531 32.2187C28.4994 30.0456 23.1437 30.0456 19.8662 32.2187Z" stroke="white" stroke-width="2.625" stroke-linecap="round" stroke-linejoin="round"/>
<path d="M36.7109 38.6787C37.5659 38.5006 38.3734 38.1562 39.0384 37.6456C40.8909 36.2562 40.8909 33.9643 39.0384 32.575C38.3853 32.0762 37.5897 31.7437 36.7466 31.5537" stroke="white" stroke-width="2.625" stroke-linecap="round" stroke-linejoin="round"/>
</svg>
